# xmcd
#
# Track frame offsets: 
#        150
#        13184
#        26908
#        39645
#        53590
#        63398
#        75119
#        90319
#        105613
#        119159
#        133352
#        146016
#        160008
#        174091
#        188351
#        200894
#        213562
#        226927
#        240699
#        255257
#        268512
#        283568
#        297308
#        308863
#        320937
#
# Disc length: 4455 seconds
#
# Revision: 1
# Processed by: cddbd v1.5.2PL0 Copyright (c) Steve Scherf et al.
# Submitted via: ExactAudioCopy v0.99pb5
#
DISCID=67116519
DTITLE=Various Artist - The Rough Guide To Delta Blues: Reborn and Rema
DTITLE=stered
DYEAR=2016
DGENRE=Blues
TTITLE0=Bukka White - Special Streamline (1940)
TTITLE1=Tommy Johnson - Bye Bye Blues (1928)
TTITLE2=Skip James - Hard Time Killin' Floor Blues (1931)
TTITLE3=Robert Wilkins - I'll Go With Her (1930)
TTITLE4=Son House - Country Farm Blues (1942)
TTITLE5=Bo Carter - Who's Been Here? (1938)
TTITLE6=Ishman Bracey - Trouble Hearted Blues (Take 2) (1928)
TTITLE7=Mississippi Sheiks - The World Is Going Wrong (1932)
TTITLE8=Arthur Petties - That Won't Do (1930)
TTITLE9=Willie Brown - M and O Blues (1930)
TTITLE10=The Mississippi Moaner - It's Cold In China Blues (1935)
TTITLE11=Johnnie Temple - The Evil Devil Blues (1935)
TTITLE12=Mississippi Bracey - Stered Gal (1930)
TTITLE13=Garfield Akers - Dough Roller Blues (1930)
TTITLE14=Mattie Delaney - Tallahatchie River Blues (1930)
TTITLE15=Willie 'Poor Boy' Lofton - Dirty Mistreater (1935)
TTITLE16=Kid Bailey - Rowdy Blues (1929)
TTITLE17=Geeshie Wiley - Eagles On A Half (1931)
TTITLE18=Joe Calicott - Traveling Mama Blues (1930)
TTITLE19=Jelly Jaw Short - Barefoot Blues (1932)
TTITLE20=Rube Lacey - Mississippi Jailhouse Groan (1928)
TTITLE21=Charlie McCoy - Last Time Blues (1929)
TTITLE22=Sonny Boy Nelson - Street Walkin' (1936)
TTITLE23=Memphis Minnie and Kansas Joe - I'm Talking About You (1930)
TTITLE24=Charley Patton - Poor Me (1934)
EXTD=
EXTT0=
EXTT1=
EXTT2=
EXTT3=
EXTT4=
EXTT5=
EXTT6=
EXTT7=
EXTT8=
EXTT9=
EXTT10=
EXTT11=
EXTT12=
EXTT13=
EXTT14=
EXTT15=
EXTT16=
EXTT17=
EXTT18=
EXTT19=
EXTT20=
EXTT21=
EXTT22=
EXTT23=
EXTT24=
PLAYORDER=
